<?xml version="1.0" standalone="no"?>
<!DOCTYPE svg PUBLIC "-//W3C//DTD SVG 20010904//EN"
 "http://www.w3.org/TR/2001/REC-SVG-20010904/DTD/svg10.dtd">
<svg version="1.0" xmlns="http://www.w3.org/2000/svg"
 width="64.000000pt" height="64.000000pt" viewBox="0 0 64.000000 64.000000"
 preserveAspectRatio="xMidYMid meet">

<g transform="translate(0.000000,64.000000) scale(0.100000,-0.100000)"
fill="#000000" stroke="none">
<path d="M295 610 c-3 -5 -24 -10 -45 -10 -29 0 -42 -5 -50 -20 -6 -12 -21
-20 -36 -20 -19 0 -28 -7 -35 -30 -6 -16 -15 -30 -19 -30 -17 0 -41 -33 -36
-47 4 -8 -3 -26 -13 -40 -15 -19 -18 -30 -11 -49 6 -15 6 -33 0 -48 -7 -19 -5
-30 9 -48 27 -35 21 -72 -18 -112 -25 -26 -31 -37 -20 -40 8 -3 26 -10 42 -16
16 -5 32 -21 37 -37 6 -16 13 -34 16 -42 3 -10 16 -4 44 24 35 35 45 39 82 36
22 -1 49 -8 60 -14 13 -9 23 -9 36 0 11 6 38 13 60 14 37 3 47 -1 82 -36 l39
-38 11 29 c6 16 13 35 15 42 4 11 16 17 74 38 11 3 5 14 -20 40 -39 40 -45 77
-18 112 14 18 16 29 9 48 -6 15 -6 33 0 48 7 19 4 30 -11 49 -10 14 -17 32
-13 40 5 14 -19 47 -36 47 -4 0 -13 14 -19 30 -7 23 -16 30 -35 30 -15 0 -30
8 -36 20 -8 15 -21 20 -50 20 -21 0 -42 5 -45 10 -3 6 -15 10 -25 10 -10 0
-22 -4 -25 -10z m93 -95 c49 -21 81 -52 103 -100 45 -96 -1 -207 -103 -250
-47 -19 -89 -19 -136 0 -157 66 -161 275 -7 346 49 23 94 24 143 4z"/>
<path d="M255 486 c-101 -44 -125 -178 -46 -257 65 -65 157 -65 222 0 124 124
-15 327 -176 257z"/>
</g>
</svg>
