<?xml version="1.0" standalone="no"?>
<!DOCTYPE svg PUBLIC "-//W3C//DTD SVG 20010904//EN"
 "http://www.w3.org/TR/2001/REC-SVG-20010904/DTD/svg10.dtd">
<svg version="1.0" xmlns="http://www.w3.org/2000/svg"
 width="64.000000pt" height="64.000000pt" viewBox="0 0 64.000000 64.000000"
 preserveAspectRatio="xMidYMid meet">

<g transform="translate(0.000000,64.000000) scale(0.100000,-0.100000)"
fill="#000000" stroke="none">
<path d="M479 464 c-9 -11 -13 -36 -11 -73 4 -71 -23 -115 -93 -152 -34 -17
-51 -32 -53 -47 -2 -12 1 -22 7 -22 6 0 20 -18 31 -39 27 -54 39 -59 53 -22
10 28 15 31 39 26 45 -10 50 2 23 55 l-25 49 29 15 c23 12 30 24 35 58 9 55 9
84 0 131 -7 41 -15 45 -35 21z"/>
<path d="M162 185 c-23 -49 -18 -60 26 -50 24 5 29 2 39 -26 14 -36 26 -32 53
20 23 45 13 61 -36 61 -21 0 -38 7 -47 20 -13 18 -15 17 -35 -25z"/>
</g>
</svg>
