<?xml version="1.0" standalone="no"?>
<!DOCTYPE svg PUBLIC "-//W3C//DTD SVG 20010904//EN"
 "http://www.w3.org/TR/2001/REC-SVG-20010904/DTD/svg10.dtd">
<svg version="1.0" xmlns="http://www.w3.org/2000/svg"
 width="64.000000pt" height="64.000000pt" viewBox="0 0 64.000000 64.000000"
 preserveAspectRatio="xMidYMid meet">

<g transform="translate(0.000000,64.000000) scale(0.100000,-0.100000)"
fill="#000000" stroke="none">
<path d="M473 469 c-7 -7 -10 -30 -6 -59 10 -87 -25 -147 -102 -173 -31 -11
-41 -20 -43 -40 -2 -15 1 -27 7 -27 6 0 20 -18 31 -39 27 -54 39 -59 53 -22
10 28 15 31 39 26 43 -10 50 2 28 45 -26 51 -25 64 5 78 19 9 25 19 25 45 0
18 7 43 16 55 14 20 14 24 0 44 -9 12 -16 35 -16 50 0 29 -17 37 -37 17z"/>
<path d="M163 186 c-24 -50 -19 -61 25 -51 24 5 29 2 39 -26 7 -17 17 -28 23
-24 16 10 51 85 45 95 -3 6 -23 10 -44 10 -28 0 -42 6 -52 21 -14 20 -15 19
-36 -25z"/>
</g>
</svg>
